<svg id="SvgjsSvg1000" xmlns="http://www.w3.org/2000/svg" version="1.1" xmlns:xlink="http://www.w3.org/1999/xlink" xmlns:svgjs="http://svgjs.com/svgjs" width="21" height="21" viewBox="0 0 21 21"><title>Fill 1</title><desc>Created with Avocode.</desc><defs id="SvgjsDefs1001"></defs><path id="SvgjsPath1007" d="M137.65 32.17C135.78 30.3 134.85 28.05 134.85 25.410000000000004C134.85 22.770000000000003 135.78 20.520000000000003 137.65 18.650000000000006C139.52 16.790000000000006 141.77 15.850000000000005 144.41 15.850000000000005C147.04 15.850000000000005 149.29999999999998 16.790000000000006 151.17 18.650000000000006C153.03 20.520000000000007 153.97 22.770000000000007 153.97 25.410000000000004C153.97 28.050000000000004 153.03 30.300000000000004 151.17 32.17C149.29999999999998 34.03 147.04 34.97 144.41 34.97C141.77 34.97 139.52 34.03 137.65 32.17ZM144.61 19.9C142.34 19.9 141.21 20.939999999999998 141.21 23.009999999999998L142.16 23.009999999999998C142.12 22.27 142.32 21.709999999999997 142.73 21.31C143.14999999999998 20.91 143.76 20.709999999999997 144.56 20.709999999999997C145.16 20.709999999999997 145.66 20.889999999999997 146.06 21.259999999999998C146.46 21.619999999999997 146.66 22.11 146.66 22.709999999999997C146.66 23.409999999999997 146.34 24.04 145.71 24.609999999999996C144.74 25.479999999999997 144.24 26.539999999999996 144.21 27.809999999999995L145.16 27.809999999999995C145.19 27.109999999999996 145.26 26.629999999999995 145.35999999999999 26.359999999999996C145.45999999999998 26.089999999999996 145.77999999999997 25.689999999999994 146.30999999999997 25.159999999999997C147.17999999999998 24.359999999999996 147.60999999999999 23.519999999999996 147.60999999999999 22.659999999999997C147.60999999999999 21.819999999999997 147.32 21.159999999999997 146.73999999999998 20.65C146.14999999999998 20.15 145.43999999999997 19.9 144.60999999999999 19.9ZM144.01 29.46C143.84 29.630000000000003 143.76 29.830000000000002 143.76 30.060000000000002C143.76 30.3 143.84 30.500000000000004 144.01 30.660000000000004C144.17999999999998 30.830000000000005 144.38 30.910000000000004 144.60999999999999 30.910000000000004C144.83999999999997 30.910000000000004 145.04 30.830000000000005 145.20999999999998 30.660000000000004C145.37999999999997 30.500000000000004 145.45999999999998 30.300000000000004 145.45999999999998 30.060000000000002C145.45999999999998 29.830000000000002 145.37999999999997 29.630000000000003 145.20999999999998 29.46C145.04 29.3 144.83999999999997 29.21 144.60999999999999 29.21C144.38 29.21 144.17999999999998 29.3 144.01 29.46ZM137.05 18.05C135.02 20.09 134 22.54 134 25.41C134 28.28 135.02 30.73 137.05 32.77C139.09 34.800000000000004 141.54000000000002 35.82 144.41000000000003 35.82C147.28000000000003 35.82 149.73000000000002 34.8 151.77000000000004 32.77C153.80000000000004 30.730000000000004 154.82000000000005 28.28 154.82000000000005 25.410000000000004C154.82000000000005 22.540000000000003 153.80000000000004 20.090000000000003 151.77000000000004 18.050000000000004C149.73000000000005 16.020000000000003 147.28000000000003 15.000000000000004 144.41000000000003 15.000000000000004C141.54000000000002 15.000000000000004 139.09000000000003 16.020000000000003 137.05 18.050000000000004Z " fill="#555555" fill-opacity="1" transform="matrix(1,0,0,1,-134,-15)"></path></svg>