<svg id="SvgjsSvg1008" xmlns="http://www.w3.org/2000/svg" version="1.1" xmlns:xlink="http://www.w3.org/1999/xlink" xmlns:svgjs="http://svgjs.com/svgjs" width="226" height="48" viewBox="0 0 226 48"><title>Fill 1</title><desc>Created with Avocode.</desc><defs id="SvgjsDefs1009"></defs><path id="SvgjsPath1010" d="M623.06 50.06L622.2099999999999 51.89C621.18 51.27 619.9599999999999 50.88 619.18 50.88C618.4399999999999 50.88 617.9399999999999 51.150000000000006 617.9399999999999 51.68C617.9399999999999 53.48 623.13 52.47 623.1199999999999 55.98C623.1199999999999 57.88999999999999 621.4599999999999 58.93 619.2999999999998 58.93C617.6999999999998 58.93 616.0999999999998 58.31 614.9999999999999 57.38L615.8799999999999 55.580000000000005C616.8799999999999 56.470000000000006 618.2999999999998 57.040000000000006 619.3299999999999 57.040000000000006C620.2399999999999 57.040000000000006 620.78 56.71000000000001 620.78 56.11000000000001C620.78 54.27 615.5799999999999 55.34 615.5799999999999 51.89000000000001C615.5799999999999 50.120000000000005 617.0999999999999 49.00000000000001 619.3599999999999 49.00000000000001C620.7199999999999 49.00000000000001 622.0899999999999 49.42000000000001 623.06 50.06000000000001 " fill="#4e4e4d" fill-opacity="1" transform="matrix(1,0,0,1,-615,-31)"></path><path id="SvgjsPath1011" d="M636.04 50.62L634.76 52.18C634.09 51.41 633.13 50.91 632.22 50.91C630.5500000000001 50.91 629.26 52.209999999999994 629.26 53.91C629.26 55.61 630.55 56.919999999999995 632.22 56.919999999999995C633.1 56.919999999999995 634.0600000000001 56.46999999999999 634.76 55.779999999999994L636.05 57.17999999999999C635.02 58.239999999999995 633.53 58.92999999999999 632.1099999999999 58.92999999999999C629.1999999999999 58.92999999999999 626.9999999999999 56.769999999999996 626.9999999999999 53.93999999999999C626.9999999999999 51.11999999999999 629.2399999999999 48.99999999999999 632.1899999999999 48.99999999999999C633.5999999999999 48.99999999999999 635.0799999999999 49.629999999999995 636.04 50.61999999999999 " fill="#4e4e4d" fill-opacity="1" transform="matrix(1,0,0,1,-615,-31)"></path><path id="SvgjsPath1012" d="M646.62 58.76V54.91H642.2V58.76H640V49H642.2V53.07H646.62V49H648.82V58.76Z " fill="#4e4e4d" fill-opacity="1" transform="matrix(1,0,0,1,-615,-31)"></path><path id="SvgjsPath1013" d="M661.8 54.67C661.8 57.25 660.12 58.86 657.43 58.86C654.7299999999999 58.86 653 57.25 653 54.67V49H655.2V54.67C655.2 56.08 656.12 56.93 657.4300000000001 56.93C658.74 56.93 659.6 56.08 659.6 54.67V49H661.8000000000001Z " fill="#4e4e4d" fill-opacity="1" transform="matrix(1,0,0,1,-615,-31)"></path><path id="SvgjsPath1014" d="M671.17 50.87V58.76H668.9699999999999V50.87H665.9999999999999V49H674.1499999999999V50.87Z " fill="#4e4e4d" fill-opacity="1" transform="matrix(1,0,0,1,-615,-31)"></path><path id="SvgjsPath1015" d="M680.97 56.92H686.5L686.48 58.760000000000005H678V57.27L683.46 50.84H678.1800000000001V49H686.4100000000001V50.48Z " fill="#4e4e4d" fill-opacity="1" transform="matrix(1,0,0,1,-615,-31)"></path><path id="SvgjsPath1016" d="M753.45 57.11H758.95V59.15H750V57.5L755.43 51.04H750.1899999999999V49H758.8699999999999V50.65Z " fill="#4e4e4d" fill-opacity="1" transform="matrix(1,0,0,1,-615,-31)"></path><path id="SvgjsPath1017" d="M766.58 51.03V53.050000000000004H771.4200000000001V55.080000000000005H766.58V57.120000000000005H772.1V59.150000000000006H764V49.00000000000001H771.94V51.03000000000001Z " fill="#4e4e4d" fill-opacity="1" transform="matrix(1,0,0,1,-615,-31)"></path><path id="SvgjsPath1018" d="M783.08 59.15L778.4200000000001 52.9V59.15H776.0000000000001V49H778.2700000000001L782.95 55.26V49H785.36V59.15Z " fill="#4e4e4d" fill-opacity="1" transform="matrix(1,0,0,1,-615,-31)"></path><path id="SvgjsPath1019" d="M795.61 51.09V59.17H793.03V51.09H790V49H798.66V51.09Z " fill="#4e4e4d" fill-opacity="1" transform="matrix(1,0,0,1,-615,-31)"></path><path id="SvgjsPath1020" d="M806.53 54.26C807.65 54.26 808.3 53.699999999999996 808.3 52.629999999999995C808.3 51.56999999999999 807.65 51.029999999999994 806.53 51.029999999999994H804.5799999999999V54.25999999999999ZM806.61 56.29H804.58V59.15H802V49H806.53C809.2099999999999 49 810.75 50.28 810.75 52.54C810.75 54.089999999999996 810.1 55.21 808.91 55.8L811.04 59.15H808.11Z " fill="#4e4e4d" fill-opacity="1" transform="matrix(1,0,0,1,-615,-31)"></path><path id="SvgjsPath1021" d="M824.3 54.89C824.3 57.57 822.52 59.27 819.68 59.27C816.8299999999999 59.27 815 57.57 815 54.89V49H817.58V54.89C817.58 56.27 818.46 57.11 819.69 57.11C820.9100000000001 57.11 821.74 56.269999999999996 821.74 54.89V49H824.3Z " fill="#4e4e4d" fill-opacity="1" transform="matrix(1,0,0,1,-615,-31)"></path><path id="SvgjsPath1022" d="M837.87 59.17L837.85 52.57L835.4200000000001 58.15H833.7400000000001L831.3000000000001 52.57V59.17H829.0000000000001V49H831.8300000000002L834.5800000000002 55.05L837.3300000000002 49H840.1400000000001V59.17Z " fill="#4e4e4d" fill-opacity="1" transform="matrix(1,0,0,1,-615,-31)"></path><path id="SvgjsPath1023" d="M738.02 36.14V40.17C738.02 53.84 730.8299999999999 67.06 718.78 75.62C706.73 67.06 699.54 53.830000000000005 699.54 40.17V36.14L705.91 35.27C714.4499999999999 34.1 723.11 34.1 731.65 35.27ZM732.02 32.9C723.24 31.7 714.3299999999999 31.7 705.54 32.9L698.0899999999999 33.92C697.4599999999999 34 696.9999999999999 34.5 696.9999999999999 35.1V40.17C696.9999999999999 54.910000000000004 704.8599999999999 69.07 718.0099999999999 78.06C718.2299999999999 78.22 718.4999999999999 78.3 718.7799999999999 78.3C718.8499999999999 78.3 718.9099999999999 78.3 718.9699999999999 78.28999999999999C719.18 78.25999999999999 719.3799999999999 78.17999999999999 719.54 78.07C732.6999999999999 69.08 740.56 54.91 740.56 40.169999999999995V35.099999999999994C740.56 34.49999999999999 740.0999999999999 33.99999999999999 739.4699999999999 33.919999999999995Z " fill="#821923" fill-opacity="1" transform="matrix(1,0,0,1,-615,-31)"></path></svg>